<?xml version="1.0" standalone="no"?><svg xmlns="http://www.w3.org/2000/svg" viewBox="0 0 1440 320"><path fill="#4581F6" fill-opacity="1" d="M0,32L40,74.7C80,117,160,203,240,218.7C320,235,400,181,480,176C560,171,640,213,720,202.7C800,192,880,128,960,117.3C1040,107,1120,149,1200,144C1280,139,1360,85,1400,58.7L1440,32L1440,320L1400,320C1360,320,1280,320,1200,320C1120,320,1040,320,960,320C880,320,800,320,720,320C640,320,560,320,480,320C400,320,320,320,240,320C160,320,80,320,40,320L0,320Z"></path></svg>